# xmcd CD database file
#
# Track frame offsets:
#	150
#	15483
#	38492
#	63184
#	80792
#	90691
#	113172
#	134050
#	143844
#	174175
#	203866
#
# Disc length: 3095 seconds
#
# Revision: 0
# Processed by: cddbd v1.5.2PL0 Copyright (c) Steve Scherf et al.
# Submitted via: jetAudio 7
#
DISCID=8e0c150b
DTITLE=Pallet - Mr.Violet
DYEAR=1900
DGENRE=Blues
TTITLE0=Friend's Token
TTITLE1=Waltz No.1
TTITLE2=Rain Again
TTITLE3=Triangle
TTITLE4=Intro. Khosrow and Shirin
TTITLE5=Khosrow and Shirin
TTITLE6=From Eastern Lands
TTITLE7=Mr.Violet
TTITLE8=Look
TTITLE9=The Sciences Lesson
TTITLE10=A Thousand Tales
EXTD=
EXTT0=
EXTT1=
EXTT2=
EXTT3=
EXTT4=
EXTT5=
EXTT6=
EXTT7=
EXTT8=
EXTT9=
EXTT10=
PLAYORDER=
